<?xml version="1.0" standalone="no"?>
<!DOCTYPE svg PUBLIC "-//W3C//DTD SVG 20010904//EN"
 "http://www.w3.org/TR/2001/REC-SVG-20010904/DTD/svg10.dtd">
<svg version="1.0" xmlns="http://www.w3.org/2000/svg"
 width="399.000000pt" height="399.000000pt" viewBox="0 0 399.000000 399.000000"
 preserveAspectRatio="xMidYMid meet">
<metadata>
Created by potrace 1.11, written by Peter Selinger 2001-2013
</metadata>
<g transform="translate(0.000000,399.000000) scale(0.100000,-0.100000)"
fill="#000000" stroke="none">
<path d="M2540 2744 c-29 -68 -27 -100 10 -119 28 -15 33 -14 60 2 30 18 33
23 45 80 5 26 2 37 -19 58 -14 14 -36 25 -50 25 -20 0 -29 -9 -46 -46z"/>
<path d="M1423 2685 c-30 -13 -33 -18 -33 -56 0 -32 6 -47 26 -66 32 -29 81
-28 98 2 6 10 17 25 24 33 15 17 16 74 0 90 -16 16 -75 15 -115 -3z"/>
<path d="M2377 2444 c-12 -12 -8 -41 8 -54 13 -10 15 -9 17 9 0 11 1 26 2 33
1 13 -17 21 -27 12z"/>
<path d="M2208 2383 c6 -2 18 -2 25 0 6 3 1 5 -13 5 -14 0 -19 -2 -12 -5z"/>
<path d="M1804 2271 c10 -11 15 -24 12 -29 -3 -5 1 -15 9 -22 12 -10 16 -8 25
14 14 37 3 56 -33 56 -29 0 -30 -1 -13 -19z"/>
<path d="M1513 2263 c-13 -8 -23 -22 -23 -30 0 -7 -7 -16 -15 -19 -8 -4 -12
-10 -9 -15 3 -5 -1 -9 -10 -9 -19 0 -72 -63 -57 -68 18 -6 13 -21 -20 -61 -23
-29 -40 -40 -70 -45 -53 -9 -119 11 -119 36 0 10 -4 18 -10 18 -5 0 -10 -6
-10 -14 0 -8 -7 -17 -16 -20 -25 -10 -34 -7 -28 8 3 8 -4 16 -20 20 -14 3 -26
13 -26 21 0 8 -17 19 -41 25 -22 6 -42 17 -45 25 -3 8 -12 11 -20 8 -10 -4
-12 0 -8 11 3 9 10 14 14 11 5 -3 11 -1 14 4 3 5 0 11 -7 14 -8 3 -19 -4 -25
-14 -16 -25 -42 -24 -42 1 0 32 -17 23 -33 -19 -13 -33 -21 -39 -54 -44 -21
-4 -52 -7 -70 -7 -59 0 -152 -129 -182 -255 -15 -59 -15 -242 0 -300 13 -52
40 -115 49 -115 4 0 13 -13 19 -29 7 -15 23 -34 37 -41 13 -8 24 -19 24 -25 0
-37 151 -135 206 -135 16 1 40 7 54 15 25 14 75 10 97 -7 16 -12 78 5 78 22 0
7 7 15 15 17 13 4 13 3 0 -6 -8 -6 -10 -11 -5 -11 17 0 56 31 50 39 -2 5 25
27 60 50 60 39 80 61 55 61 -5 0 -10 4 -10 9 0 16 59 18 75 2 13 -14 15 -14
15 2 0 9 11 19 25 23 14 3 25 10 25 15 0 5 9 9 19 9 11 0 21 8 23 18 3 15 17
17 103 18 97 1 257 17 295 29 11 4 17 12 13 21 -3 7 0 14 6 14 6 0 11 -4 11
-8 0 -18 41 -5 68 21 33 31 44 34 36 10 -5 -17 -5 -17 9 0 8 10 12 27 9 39 -4
16 -2 19 9 12 10 -6 10 -2 -2 16 -9 14 -29 28 -45 31 l-29 6 29 14 c24 11 30
11 34 1 3 -10 7 -10 18 -1 8 6 11 16 7 22 -3 5 -7 54 -8 107 -2 54 -8 114 -14
133 -9 26 -9 41 -1 57 7 14 8 26 0 39 -5 11 -10 33 -10 50 0 43 -9 60 -41 76
-44 23 -58 17 -19 -8 l35 -22 -37 -3 c-40 -3 -44 -8 -28 -32 6 -9 21 -14 40
-12 25 3 30 0 30 -17 0 -14 -10 -25 -27 -32 -15 -6 -31 -16 -35 -22 -4 -7 -8
7 -8 30 0 32 -7 50 -35 83 -38 45 -42 59 -23 78 7 7 8 12 2 12 -14 0 -34 -22
-34 -38 0 -7 12 -30 28 -49 l27 -37 -25 8 c-14 4 -50 10 -80 13 -30 3 -58 11
-62 17 -10 18 -78 8 -71 -10 3 -8 0 -14 -6 -14 -15 0 -3 72 13 82 6 4 24 8 40
8 21 0 27 4 22 15 -7 20 27 38 43 22 10 -9 11 -8 6 5 -10 25 -36 30 -57 11
-11 -9 -36 -18 -57 -18 -38 -1 -38 -1 -17 16 30 25 14 33 -26 13 -18 -9 -35
-18 -37 -20 -2 -1 6 -16 18 -33 13 -18 17 -32 11 -36 -16 -10 -24 0 -45 54
-21 55 -28 59 -62 34z m364 -187 c23 -20 32 -43 12 -30 -8 4 -9 -1 -5 -17 3
-13 3 -19 0 -13 -3 7 -14 10 -24 7 -15 -4 -20 0 -20 15 0 11 -8 22 -18 24 -10
3 -19 12 -19 21 0 9 4 14 8 11 4 -2 10 0 14 6 7 11 17 7 52 -24z m-241 16 c7
-4 8 -15 3 -27 -6 -17 -8 -17 -8 -2 -1 10 -9 17 -22 17 -11 0 -17 5 -14 10 7
12 25 13 41 2z m-558 -39 c5 -18 -16 -16 -35 3 -15 14 -14 16 7 12 13 -1 25
-9 28 -15z m22 -38 c-7 -8 -17 -15 -22 -15 -6 0 -5 7 2 15 7 8 17 15 22 15 6
0 5 -7 -2 -15z m215 -15 c3 -5 1 -10 -4 -10 -6 0 -11 5 -11 10 0 6 2 10 4 10
3 0 8 -4 11 -10z m90 -104 c0 -71 -4 -111 -12 -118 -13 -11 -13 -10 -18 87 -4
83 -4 84 -20 50 -11 -25 -14 -26 -15 -10 -4 33 1 48 22 78 34 48 43 30 43 -87z
m606 53 c11 -11 18 -23 15 -27 -4 -3 -12 0 -18 6 -16 16 -28 15 -28 -3 0 -9
11 -20 25 -25 33 -12 32 -21 -6 -49 l-32 -24 7 36 c5 29 2 40 -19 65 -18 21
-22 32 -13 35 27 11 49 6 69 -14z m-93 -12 c17 -20 27 -97 13 -97 -6 0 -11 4
-11 8 0 5 -15 7 -34 6 -31 -3 -35 0 -41 27 -11 50 44 92 73 56z m-1269 -158
c-5 -10 -14 -19 -19 -19 -16 0 -40 12 -40 21 0 4 7 6 15 3 8 -4 17 1 21 9 3 9
12 13 20 10 10 -4 11 -10 3 -24z m1096 21 c3 -5 2 -10 -3 -10 -5 0 -7 -14 -3
-32 6 -28 2 -38 -25 -64 -39 -39 -65 -54 -98 -54 -29 0 -42 16 -37 48 1 14 -3
22 -13 22 -10 0 -13 6 -9 18 10 27 35 52 52 52 12 0 9 -6 -9 -20 -23 -18 -23
-20 -5 -20 11 0 34 16 50 34 22 25 39 34 62 35 17 1 35 -3 38 -9z m255 -49
c12 -23 13 -31 3 -31 -5 0 -13 11 -20 25 -13 29 1 34 17 6z m-586 -6 c-4 -8
-10 -15 -15 -15 -4 0 -6 7 -3 15 4 8 10 15 15 15 4 0 6 -7 3 -15z m531 -5 c3
-5 2 -10 -3 -10 -5 0 -7 -13 -4 -30 2 -16 0 -30 -5 -30 -18 0 -23 13 -10 28
10 13 9 15 -8 10 -11 -3 -28 -9 -37 -13 -13 -5 -18 -2 -18 9 0 9 6 16 14 16 8
0 16 7 20 15 6 17 42 20 51 5z m-774 -15 c-1 -15 -24 -12 -29 3 -3 9 2 13 12
10 10 -1 17 -7 17 -13z m76 -31 c-3 -3 -12 -4 -19 -1 -8 3 -5 6 6 6 11 1 17
-2 13 -5z m-45 -26 c-9 -9 -15 -9 -24 0 -9 9 -7 12 12 12 19 0 21 -3 12 -12z
m-89 -45 c-7 -2 -19 -2 -25 0 -7 3 -2 5 12 5 14 0 19 -2 13 -5z m33 -40 c-11
-11 -35 -12 -42 -2 -3 5 7 9 22 9 15 0 24 -3 20 -7z m781 -8 c3 -9 3 -18 1
-21 -9 -9 -38 8 -38 22 0 19 29 18 37 -1z m-42 -44 c-3 -6 -11 -11 -16 -11 -5
0 -4 6 3 14 14 16 24 13 13 -3z m-1049 -278 c-10 -10 -19 5 -10 18 6 11 8 11
12 0 2 -7 1 -15 -2 -18z m271 -29 c-3 -3 -12 -4 -19 -1 -8 3 -5 6 6 6 11 1 17
-2 13 -5z"/>
<path d="M1643 1743 c-18 -7 -16 -23 2 -23 8 0 15 7 15 15 0 8 -1 15 -2 14 -2
0 -9 -3 -15 -6z"/>
<path d="M1697 2273 c-4 -3 -7 -12 -7 -20 0 -11 4 -11 20 -3 11 6 18 15 15 21
-7 11 -19 12 -28 2z"/>
<path d="M1805 2210 c3 -5 8 -10 11 -10 2 0 4 5 4 10 0 6 -5 10 -11 10 -5 0
-7 -4 -4 -10z"/>
<path d="M2050 2084 c0 -34 23 -95 31 -82 4 7 3 19 -4 26 -6 8 -10 27 -9 43 1
16 -2 29 -8 29 -5 0 -10 -7 -10 -16z"/>
<path d="M1250 2041 c0 -10 19 -25 25 -20 1 2 -3 10 -11 17 -8 7 -14 8 -14 3z"/>
<path d="M2060 1910 c0 -5 5 -10 11 -10 5 0 7 5 4 10 -3 6 -8 10 -11 10 -2 0
-4 -4 -4 -10z"/>
<path d="M2762 854 c-8 -15 -18 -20 -35 -17 -17 3 -26 -2 -37 -21 -7 -14 -17
-26 -21 -26 -5 0 -29 -21 -54 -46 -60 -61 -61 -104 -2 -72 34 17 127 99 127
111 0 6 9 21 21 33 11 12 19 30 17 41 -4 17 -5 16 -16 -3z"/>
<path d="M2445 682 c-17 -8 -43 -18 -60 -22 -22 -4 -30 -12 -31 -29 -1 -22 1
-23 70 -19 56 3 78 9 105 28 l33 25 -31 3 c-17 2 -31 7 -31 12 0 16 -26 17
-55 2z"/>
</g>
</svg>
